<svg width="32" height="32" viewBox="0 0 32 32" fill="none" xmlns="http://www.w3.org/2000/svg">
<path d="M12.0184 14.842H12.1724C12.4058 14.842 12.5551 14.87 12.6204 14.926C12.6951 14.982 12.7418 15.0193 12.7604 15.038C12.7884 15.0473 12.8211 15.0847 12.8584 15.15C12.9051 15.2153 12.9331 15.2573 12.9424 15.276C12.9611 15.2947 12.9938 15.3507 13.0404 15.444C13.0871 15.5373 13.1198 15.598 13.1384 15.626C14.2864 17.7073 15.3458 20.3767 16.3164 23.634C16.3444 23.746 16.3584 23.8533 16.3584 23.956C16.3584 24.208 16.2138 24.334 15.9244 24.334H15.5884C15.4298 24.334 15.3178 24.306 15.2524 24.25C15.1964 24.194 15.1544 24.152 15.1264 24.124C15.0984 24.096 15.0704 24.0447 15.0424 23.97C15.0144 23.886 14.9958 23.8253 14.9864 23.788C14.9584 23.732 14.8651 23.4147 14.7064 22.836C14.5571 22.248 14.3891 21.6833 14.2024 21.142H9.97442C9.74109 21.8607 9.55909 22.472 9.42842 22.976C9.29776 23.48 9.22309 23.7507 9.20442 23.788C9.19509 23.8253 9.17642 23.886 9.14842 23.97C9.12042 24.0447 9.09242 24.096 9.06442 24.124C9.03642 24.152 8.99909 24.1847 8.95242 24.222C8.87776 24.2967 8.76109 24.334 8.60242 24.334H8.26642C7.96776 24.334 7.81842 24.208 7.81842 23.956C7.81842 23.8907 7.83709 23.7833 7.87442 23.634C8.84509 20.3767 9.90442 17.7073 11.0524 15.626C11.0711 15.598 11.1038 15.5373 11.1504 15.444C11.1971 15.3507 11.2251 15.2947 11.2344 15.276C11.2531 15.2573 11.2811 15.2153 11.3184 15.15C11.3651 15.0847 11.3978 15.0473 11.4164 15.038C11.4444 15.0193 11.4818 14.9913 11.5284 14.954C11.5751 14.9167 11.6171 14.8933 11.6544 14.884C11.7851 14.856 11.9064 14.842 12.0184 14.842ZM12.0884 16.172C11.4818 17.2453 10.8938 18.566 10.3244 20.134H13.8664C13.5304 19.21 12.9378 17.8893 12.0884 16.172ZM17.4578 20.904C17.4578 19.7373 17.7844 18.846 18.4378 18.23C19.0911 17.614 19.8424 17.306 20.6918 17.306C21.5411 17.306 22.2131 17.5253 22.7078 17.964C23.2024 18.3933 23.4498 18.93 23.4498 19.574C23.4498 20.218 23.1931 20.722 22.6798 21.086C22.1758 21.4407 21.5224 21.618 20.7198 21.618C19.9171 21.618 19.1938 21.492 18.5498 21.24C18.5498 21.9213 18.7831 22.472 19.2498 22.892C19.7164 23.3027 20.2858 23.508 20.9578 23.508C22.0031 23.508 22.6564 23.186 22.9178 22.542C23.0764 22.542 23.2118 22.5887 23.3238 22.682C23.4358 22.766 23.4918 22.892 23.4918 23.06C23.4918 23.3867 23.2491 23.6993 22.7638 23.998C22.2878 24.2967 21.6811 24.446 20.9438 24.446C19.9544 24.446 19.1238 24.1473 18.4518 23.55C17.7891 22.9527 17.4578 22.0707 17.4578 20.904ZM22.3858 19.532C22.3858 19.168 22.2271 18.86 21.9098 18.608C21.6018 18.356 21.1724 18.23 20.6218 18.23C20.0804 18.23 19.6044 18.4493 19.1938 18.888C18.7831 19.3267 18.5731 19.8213 18.5638 20.372C19.2358 20.596 19.9031 20.708 20.5658 20.708C21.7791 20.708 22.3858 20.316 22.3858 19.532Z" fill="#808080"/>
<path d="M7.66667 29.6667C6.95942 29.6667 6.28115 29.3857 5.78105 28.8856C5.28095 28.3855 5 27.7072 5 27V5.66667C5 4.95943 5.28095 4.28115 5.78105 3.78105C6.28115 3.28096 6.95942 3 7.66667 3H18.3333C18.7554 2.99932 19.1734 3.08214 19.5634 3.2437C19.9533 3.40525 20.3074 3.64235 20.6053 3.94134L25.3893 8.72534C25.6891 9.02335 25.9269 9.3778 26.0889 9.76822C26.251 10.1586 26.334 10.5773 26.3333 11V27C26.3333 27.7072 26.0524 28.3855 25.5523 28.8856C25.0522 29.3857 24.3739 29.6667 23.6667 29.6667H7.66667Z" stroke="#CCCCCC" stroke-width="2.66667" stroke-linecap="round" stroke-linejoin="round"/>
<path d="M18.3333 3V9.66667C18.3333 10.0203 18.4737 10.3594 18.7238 10.6095C18.9738 10.8595 19.313 11 19.6666 11H26.3333" stroke="#CCCCCC" stroke-width="2.66667" stroke-linecap="round" stroke-linejoin="round"/>
</svg>
