<svg width="32" height="32" viewBox="0 0 32 32" fill="none" xmlns="http://www.w3.org/2000/svg">
<path d="M13.2889 14.842H13.4429C13.6763 14.842 13.8256 14.87 13.8909 14.926C13.9656 14.982 14.0123 15.0193 14.0309 15.038C14.0589 15.0473 14.0916 15.0847 14.1289 15.15C14.1756 15.2153 14.2036 15.2573 14.2129 15.276C14.2316 15.2947 14.2643 15.3507 14.3109 15.444C14.3576 15.5373 14.3903 15.598 14.4089 15.626C15.5569 17.7073 16.6163 20.3767 17.5869 23.634C17.6149 23.746 17.6289 23.8533 17.6289 23.956C17.6289 24.208 17.4843 24.334 17.1949 24.334H16.8589C16.7003 24.334 16.5883 24.306 16.5229 24.25C16.4669 24.194 16.4249 24.152 16.3969 24.124C16.3689 24.096 16.3409 24.0447 16.3129 23.97C16.2849 23.886 16.2663 23.8253 16.2569 23.788C16.2289 23.732 16.1356 23.4147 15.9769 22.836C15.8276 22.248 15.6596 21.6833 15.4729 21.142H11.2449C11.0116 21.8607 10.8296 22.472 10.6989 22.976C10.5683 23.48 10.4936 23.7507 10.4749 23.788C10.4656 23.8253 10.4469 23.886 10.4189 23.97C10.3909 24.0447 10.3629 24.096 10.3349 24.124C10.3069 24.152 10.2696 24.1847 10.2229 24.222C10.1483 24.2967 10.0316 24.334 9.87293 24.334H9.53693C9.23826 24.334 9.08893 24.208 9.08893 23.956C9.08893 23.8907 9.1076 23.7833 9.14493 23.634C10.1156 20.3767 11.1749 17.7073 12.3229 15.626C12.3416 15.598 12.3743 15.5373 12.4209 15.444C12.4676 15.3507 12.4956 15.2947 12.5049 15.276C12.5236 15.2573 12.5516 15.2153 12.5889 15.15C12.6356 15.0847 12.6683 15.0473 12.6869 15.038C12.7149 15.0193 12.7523 14.9913 12.7989 14.954C12.8456 14.9167 12.8876 14.8933 12.9249 14.884C13.0556 14.856 13.1769 14.842 13.2889 14.842ZM13.3589 16.172C12.7523 17.2453 12.1643 18.566 11.5949 20.134H15.1369C14.8009 19.21 14.2083 17.8893 13.3589 16.172ZM19.9323 17.432H20.0163C20.3709 17.432 20.5483 17.6047 20.5483 17.95V23.802C20.5483 24.1567 20.3709 24.334 20.0163 24.334H19.9323C19.5776 24.334 19.4003 24.1567 19.4003 23.802V17.95C19.4003 17.6047 19.5776 17.432 19.9323 17.432ZM19.2043 15.458C19.2043 15.2433 19.2789 15.0613 19.4283 14.912C19.5776 14.7533 19.7549 14.674 19.9603 14.674C20.1749 14.674 20.3569 14.7533 20.5063 14.912C20.6649 15.0613 20.7443 15.2433 20.7443 15.458C20.7443 15.6633 20.6696 15.8453 20.5203 16.004C20.3709 16.1533 20.1889 16.228 19.9743 16.228C19.7596 16.228 19.5776 16.1533 19.4283 16.004C19.2789 15.8547 19.2043 15.6727 19.2043 15.458Z" fill="#808080"/>
<path d="M7.66667 29.6667C6.95942 29.6667 6.28115 29.3857 5.78105 28.8856C5.28095 28.3855 5 27.7072 5 27V5.66667C5 4.95943 5.28095 4.28115 5.78105 3.78105C6.28115 3.28096 6.95942 3 7.66667 3H18.3333C18.7554 2.99932 19.1734 3.08214 19.5634 3.2437C19.9533 3.40525 20.3074 3.64235 20.6053 3.94134L25.3893 8.72534C25.6891 9.02335 25.9269 9.3778 26.0889 9.76822C26.251 10.1586 26.334 10.5773 26.3333 11V27C26.3333 27.7072 26.0524 28.3855 25.5523 28.8856C25.0522 29.3857 24.3739 29.6667 23.6667 29.6667H7.66667Z" stroke="#CCCCCC" stroke-width="2.66667" stroke-linecap="round" stroke-linejoin="round"/>
<path d="M18.3333 3V9.66667C18.3333 10.0203 18.4737 10.3594 18.7238 10.6095C18.9738 10.8595 19.313 11 19.6666 11H26.3333" stroke="#CCCCCC" stroke-width="2.66667" stroke-linecap="round" stroke-linejoin="round"/>
</svg>
