<svg width="32" height="32" viewBox="0 0 32 32" fill="none" xmlns="http://www.w3.org/2000/svg">
<path d="M11.7109 14.508H11.8649C12.0982 14.508 12.2475 14.536 12.3129 14.592C12.3875 14.648 12.4342 14.6853 12.4529 14.704C12.4809 14.7133 12.5135 14.7507 12.5509 14.816C12.5975 14.8813 12.6255 14.9233 12.6349 14.942C12.6535 14.9607 12.6862 15.0167 12.7329 15.11C12.7795 15.2033 12.8122 15.264 12.8309 15.292C13.9789 17.3733 15.0382 20.0427 16.0089 23.3C16.0369 23.412 16.0509 23.5193 16.0509 23.622C16.0509 23.874 15.9062 24 15.6169 24H15.2809C15.1222 24 15.0102 23.972 14.9449 23.916C14.8889 23.86 14.8469 23.818 14.8189 23.79C14.7909 23.762 14.7629 23.7107 14.7349 23.636C14.7069 23.552 14.6882 23.4913 14.6789 23.454C14.6509 23.398 14.5575 23.0807 14.3989 22.502C14.2495 21.914 14.0815 21.3493 13.8949 20.808H9.66687C9.43353 21.5267 9.25153 22.138 9.12087 22.642C8.9902 23.146 8.91553 23.4167 8.89687 23.454C8.88753 23.4913 8.86887 23.552 8.84087 23.636C8.81287 23.7107 8.78487 23.762 8.75687 23.79C8.72887 23.818 8.69153 23.8507 8.64487 23.888C8.5702 23.9627 8.45353 24 8.29487 24H7.95887C7.6602 24 7.51087 23.874 7.51087 23.622C7.51087 23.5567 7.52953 23.4493 7.56687 23.3C8.53753 20.0427 9.59687 17.3733 10.7449 15.292C10.7635 15.264 10.7962 15.2033 10.8429 15.11C10.8895 15.0167 10.9175 14.9607 10.9269 14.942C10.9455 14.9233 10.9735 14.8813 11.0109 14.816C11.0575 14.7507 11.0902 14.7133 11.1089 14.704C11.1369 14.6853 11.1742 14.6573 11.2209 14.62C11.2675 14.5827 11.3095 14.5593 11.3469 14.55C11.4775 14.522 11.5989 14.508 11.7109 14.508ZM11.7809 15.838C11.1742 16.9113 10.5862 18.232 10.0169 19.8H13.5589C13.2229 18.876 12.6302 17.5553 11.7809 15.838ZM17.9482 17.112H18.0462C18.4009 17.112 18.5782 17.2847 18.5782 17.63V21.228C18.5782 22.5067 19.1429 23.146 20.2722 23.146C20.7015 23.146 21.0609 23.02 21.3502 22.768C21.8729 22.32 22.1342 21.648 22.1342 20.752V17.63C22.1342 17.2847 22.3162 17.112 22.6802 17.112H22.7782C22.9649 17.112 23.0955 17.154 23.1702 17.238C23.2542 17.3127 23.2962 17.4433 23.2962 17.63V23.482C23.2962 23.6687 23.2542 23.804 23.1702 23.888C23.0862 23.9627 22.9509 24 22.7642 24H22.6802C22.3162 24 22.1342 23.8273 22.1342 23.482V22.782C22.0035 23.0807 21.7235 23.3793 21.2942 23.678C20.8742 23.9673 20.4215 24.112 19.9362 24.112C18.2562 24.112 17.4162 23.174 17.4162 21.298V17.63C17.4162 17.2847 17.5935 17.112 17.9482 17.112Z" fill="#808080"/>
<path d="M7.66667 29.3327C6.95942 29.3327 6.28115 29.0517 5.78105 28.5516C5.28095 28.0515 5 27.3733 5 26.666V5.33269C5 4.62544 5.28095 3.94717 5.78105 3.44707C6.28115 2.94697 6.95942 2.66602 7.66667 2.66602H18.3333C18.7554 2.66534 19.1734 2.74816 19.5634 2.90971C19.9533 3.07127 20.3074 3.30837 20.6053 3.60735L25.3893 8.39135C25.6891 8.68936 25.9269 9.04381 26.0889 9.43424C26.251 9.82466 26.334 10.2433 26.3333 10.666V26.666C26.3333 27.3733 26.0524 28.0515 25.5523 28.5516C25.0522 29.0517 24.3739 29.3327 23.6667 29.3327H7.66667Z" stroke="#CCCCCC" stroke-width="2.66667" stroke-linecap="round" stroke-linejoin="round"/>
<path d="M18.3333 2.66602V9.33268C18.3333 9.6863 18.4737 10.0254 18.7238 10.2755C18.9738 10.5255 19.313 10.666 19.6666 10.666H26.3333" stroke="#CCCCCC" stroke-width="2.66667" stroke-linecap="round" stroke-linejoin="round"/>
</svg>
