<svg width="32" height="32" viewBox="0 0 32 32" fill="none" xmlns="http://www.w3.org/2000/svg">
<path d="M10.9212 14.828H13.3572C14.2906 14.828 15.0372 15.0287 15.5972 15.43C16.1572 15.8313 16.4372 16.4473 16.4372 17.278C16.4372 17.7633 16.3112 18.188 16.0592 18.552C15.8072 18.9067 15.4759 19.1493 15.0652 19.28C15.5972 19.3733 16.0592 19.5927 16.4512 19.938C16.8432 20.2833 17.0392 20.806 17.0392 21.506C17.0392 22.458 16.7172 23.1673 16.0732 23.634C15.4386 24.1007 14.6126 24.334 13.5952 24.334H10.9212C10.5666 24.334 10.3892 24.1613 10.3892 23.816V15.374C10.3892 15.01 10.5666 14.828 10.9212 14.828ZM11.5932 15.878V18.916H13.4552C14.0712 18.916 14.5239 18.79 14.8132 18.538C15.1119 18.286 15.2612 17.8987 15.2612 17.376C15.2612 16.3773 14.6266 15.878 13.3572 15.878H11.5932ZM11.5932 19.868V23.284H13.5952C15.0979 23.284 15.8492 22.6913 15.8492 21.506C15.8492 20.414 15.1352 19.868 13.7072 19.868H11.5932ZM19.2245 17.432H19.3085C19.6632 17.432 19.8405 17.6047 19.8405 17.95V18.706C19.9992 18.3513 20.2512 18.034 20.5965 17.754C20.9512 17.474 21.3292 17.334 21.7305 17.334C22.1319 17.334 22.4352 17.4133 22.6405 17.572C22.8552 17.7307 22.9625 17.9267 22.9625 18.16C22.9625 18.384 22.8645 18.5613 22.6685 18.692C22.3792 18.4493 22.0712 18.328 21.7445 18.328C21.1659 18.328 20.7085 18.566 20.3725 19.042C20.0365 19.5087 19.8685 20.0967 19.8685 20.806V23.802C19.8685 23.9887 19.8265 24.124 19.7425 24.208C19.6585 24.292 19.5232 24.334 19.3365 24.334H19.2245C19.0379 24.334 18.9025 24.292 18.8185 24.208C18.7345 24.124 18.6925 23.9887 18.6925 23.802V17.95C18.6925 17.6047 18.8699 17.432 19.2245 17.432Z" fill="#808080"/>
<path d="M7.66667 29.6667C6.95942 29.6667 6.28115 29.3857 5.78105 28.8856C5.28095 28.3855 5 27.7072 5 27V5.66667C5 4.95943 5.28095 4.28115 5.78105 3.78105C6.28115 3.28096 6.95942 3 7.66667 3H18.3333C18.7554 2.99932 19.1734 3.08214 19.5634 3.2437C19.9533 3.40525 20.3074 3.64235 20.6053 3.94134L25.3893 8.72534C25.6891 9.02335 25.9269 9.3778 26.0889 9.76822C26.251 10.1586 26.334 10.5773 26.3333 11V27C26.3333 27.7072 26.0524 28.3855 25.5523 28.8856C25.0522 29.3857 24.3739 29.6667 23.6667 29.6667H7.66667Z" stroke="#CCCCCC" stroke-width="2.66667" stroke-linecap="round" stroke-linejoin="round"/>
<path d="M18.3333 3V9.66667C18.3333 10.0203 18.4737 10.3594 18.7238 10.6095C18.9738 10.8595 19.313 11 19.6666 11H26.3333" stroke="#CCCCCC" stroke-width="2.66667" stroke-linecap="round" stroke-linejoin="round"/>
</svg>
