<svg width="32" height="32" viewBox="0 0 32 32" fill="none" xmlns="http://www.w3.org/2000/svg">
<path d="M14.1667 15.504C13.7143 15.3449 13.2304 15.2965 12.7555 15.3629C12.2806 15.4294 11.8285 15.6087 11.4372 15.8859C11.0458 16.163 10.7267 16.53 10.5064 16.9559C10.2861 17.3819 10.1711 17.8544 10.1711 18.334C10.1711 18.8135 10.2861 19.2861 10.5064 19.712C10.7267 20.138 11.0458 20.5049 11.4372 20.7821C11.8285 21.0593 12.2806 21.2386 12.7555 21.305C13.2304 21.3715 13.7143 21.3231 14.1667 21.164" stroke="#808080" stroke-linecap="round" stroke-linejoin="round"/>
<path d="M16.1666 17.334H21.1666" stroke="#808080" stroke-linecap="round" stroke-linejoin="round"/>
<path d="M16.1666 19.334H21.1666" stroke="#808080" stroke-linecap="round" stroke-linejoin="round"/>
<path d="M18.0416 15.334L17.4166 21.334" stroke="#808080" stroke-linecap="round" stroke-linejoin="round"/>
<path d="M19.9166 15.334L19.2916 21.334" stroke="#808080" stroke-linecap="round" stroke-linejoin="round"/>
<path d="M7.66667 29.6667C6.95942 29.6667 6.28115 29.3857 5.78105 28.8856C5.28095 28.3855 5 27.7072 5 27V5.66667C5 4.95943 5.28095 4.28115 5.78105 3.78105C6.28115 3.28096 6.95942 3 7.66667 3H18.3333C18.7554 2.99932 19.1734 3.08214 19.5634 3.2437C19.9533 3.40525 20.3074 3.64235 20.6053 3.94134L25.3893 8.72534C25.6891 9.02335 25.9269 9.3778 26.0889 9.76822C26.251 10.1586 26.334 10.5773 26.3333 11V27C26.3333 27.7072 26.0524 28.3855 25.5523 28.8856C25.0522 29.3857 24.3739 29.6667 23.6667 29.6667H7.66667Z" stroke="#CCCCCC" stroke-width="2.66667" stroke-linecap="round" stroke-linejoin="round"/>
<path d="M18.3333 3V9.66667C18.3333 10.0203 18.4737 10.3594 18.7238 10.6095C18.9738 10.8595 19.313 11 19.6666 11H26.3333" stroke="#CCCCCC" stroke-width="2.66667" stroke-linecap="round" stroke-linejoin="round"/>
</svg>
