<svg width="32" height="32" viewBox="0 0 32 32" fill="none" xmlns="http://www.w3.org/2000/svg">
<path d="M17.8037 14.5526C17.2221 14.348 16.5999 14.2858 15.9893 14.3712C15.3787 14.4566 14.7975 14.6872 14.2944 15.0435C13.7912 15.3999 13.3809 15.8717 13.0976 16.4193C12.8144 16.967 12.6666 17.5746 12.6666 18.1911C12.6666 18.8077 12.8144 19.4153 13.0976 19.9629C13.3809 20.5106 13.7912 20.9824 14.2944 21.3387C14.7975 21.6951 15.3787 21.9256 15.9893 22.0111C16.5999 22.0965 17.2221 22.0343 17.8037 21.8297" stroke="#808080" stroke-width="1.66" stroke-linecap="round" stroke-linejoin="round"/>
<path d="M7.66667 29.6667C6.95942 29.6667 6.28115 29.3857 5.78105 28.8856C5.28095 28.3855 5 27.7072 5 27V5.66667C5 4.95943 5.28095 4.28115 5.78105 3.78105C6.28115 3.28096 6.95942 3 7.66667 3H18.3333C18.7554 2.99932 19.1734 3.08214 19.5634 3.2437C19.9533 3.40525 20.3074 3.64235 20.6053 3.94134L25.3893 8.72534C25.6891 9.02335 25.9269 9.3778 26.0889 9.76822C26.251 10.1586 26.334 10.5773 26.3333 11V27C26.3333 27.7072 26.0524 28.3855 25.5523 28.8856C25.0522 29.3857 24.3739 29.6667 23.6667 29.6667H7.66667Z" stroke="#CCCCCC" stroke-width="2.66667" stroke-linecap="round" stroke-linejoin="round"/>
<path d="M18.3333 3V9.66667C18.3333 10.0203 18.4737 10.3594 18.7238 10.6095C18.9738 10.8595 19.313 11 19.6666 11H26.3333" stroke="#CCCCCC" stroke-width="2.66667" stroke-linecap="round" stroke-linejoin="round"/>
</svg>
