<svg width="32" height="32" viewBox="0 0 32 32" fill="none" xmlns="http://www.w3.org/2000/svg">
<path d="M7.66667 29.6667C6.95942 29.6667 6.28115 29.3857 5.78105 28.8856C5.28095 28.3855 5 27.7072 5 27V5.66667C5 4.95943 5.28095 4.28115 5.78105 3.78105C6.28115 3.28096 6.95942 3 7.66667 3H18.3333C18.7554 2.99932 19.1734 3.08214 19.5634 3.2437C19.9533 3.40525 20.3074 3.64235 20.6053 3.94134L25.3893 8.72534C25.6891 9.02335 25.9269 9.3778 26.0889 9.76822C26.251 10.1586 26.334 10.5773 26.3333 11V27C26.3333 27.7072 26.0524 28.3855 25.5523 28.8856C25.0522 29.3857 24.3739 29.6667 23.6667 29.6667H7.66667Z" stroke="#CCCCCC" stroke-width="2.66667" stroke-linecap="round" stroke-linejoin="round"/>
<path d="M18.3333 3V9.66667C18.3333 10.0203 18.4737 10.3594 18.7238 10.6095C18.9738 10.8595 19.313 11 19.6666 11H26.3333" stroke="#CCCCCC" stroke-width="2.66667" stroke-linecap="round" stroke-linejoin="round"/>
<g clip-path="url(#clip0_1457_3668)">
<path d="M19.1666 21.6667L21.5 19.3333L19.1666 17" stroke="#808080" stroke-width="1.33333" stroke-linecap="round" stroke-linejoin="round"/>
<path d="M12.1666 17L9.83325 19.3333L12.1666 21.6667" stroke="#808080" stroke-width="1.33333" stroke-linecap="round" stroke-linejoin="round"/>
<path d="M17.1249 14.668L14.2083 24.0013" stroke="#808080" stroke-width="1.33333" stroke-linecap="round" stroke-linejoin="round"/>
</g>
<defs>
<clipPath id="clip0_1457_3668">
<rect width="14" height="14" fill="white" transform="translate(8.66663 12.334)"/>
</clipPath>
</defs>
</svg>
