<svg width="32" height="32" viewBox="0 0 32 32" fill="none" xmlns="http://www.w3.org/2000/svg">
<path d="M7.36327 15.507H9.95027C11.1116 15.507 12.0909 15.8493 12.8883 16.534C13.2783 16.8807 13.5859 17.3443 13.8113 17.925C14.0453 18.5057 14.1623 19.173 14.1623 19.927C14.1623 20.681 14.0453 21.3483 13.8113 21.929C13.5859 22.501 13.2783 22.956 12.8883 23.294C12.0909 23.9873 11.1116 24.334 9.95027 24.334H7.36327C7.03394 24.334 6.86927 24.1737 6.86927 23.853V16.001C6.86927 15.6717 7.03394 15.507 7.36327 15.507ZM7.98727 16.495V23.372H9.84627C10.8516 23.372 11.6403 23.0773 12.2123 22.488C12.7843 21.8987 13.0703 21.045 13.0703 19.927C13.0703 18.809 12.7843 17.9597 12.2123 17.379C11.6403 16.7897 10.8516 16.495 9.84627 16.495H7.98727ZM15.8333 17.938H16.0413C16.2926 17.938 16.4486 18.0723 16.5093 18.341C17.0899 20.6897 17.5406 22.371 17.8613 23.385H18.0173C18.0866 23.0903 18.2773 22.345 18.5893 21.149C18.9013 19.9443 19.1353 19.0083 19.2913 18.341C19.3519 18.0723 19.5209 17.938 19.7983 17.938H19.9933C20.2706 17.938 20.4396 18.0723 20.5003 18.341C20.6476 18.9823 20.8729 19.875 21.1763 21.019C21.4883 22.163 21.6963 22.9517 21.8003 23.385H21.9563C22.2509 22.4577 22.5326 21.435 22.8013 20.317C23.0699 19.199 23.2303 18.5403 23.2823 18.341C23.3429 18.0723 23.4989 17.938 23.7503 17.938H23.9583C24.2443 17.938 24.3873 18.0333 24.3873 18.224C24.3873 18.2587 24.3613 18.367 24.3093 18.549C24.2659 18.731 24.1663 19.121 24.0103 19.719C23.8629 20.317 23.7416 20.7893 23.6463 21.136C23.3776 22.098 23.1046 22.9517 22.8273 23.697C22.6626 24.1217 22.3636 24.334 21.9303 24.334H21.8133C21.5706 24.334 21.3929 24.2863 21.2803 24.191C21.1676 24.087 21.0766 23.9223 21.0073 23.697C20.4959 21.981 20.1363 20.4947 19.9283 19.238H19.8503C19.6076 20.694 19.2609 22.1803 18.8103 23.697C18.7409 23.9223 18.6499 24.087 18.5373 24.191C18.4246 24.2863 18.2469 24.334 18.0043 24.334H17.8873C17.4539 24.334 17.1593 24.1303 17.0033 23.723C16.8473 23.3157 16.6869 22.8607 16.5223 22.358C16.3663 21.8467 16.2493 21.448 16.1713 21.162C16.0933 20.876 15.9589 20.382 15.7683 19.68C15.5256 18.7527 15.4043 18.2673 15.4043 18.224C15.4043 18.0333 15.5473 17.938 15.8333 17.938Z" fill="#808080"/>
<path d="M7.66667 29.6667C6.95942 29.6667 6.28115 29.3857 5.78105 28.8856C5.28095 28.3855 5 27.7072 5 27V5.66667C5 4.95943 5.28095 4.28115 5.78105 3.78105C6.28115 3.28096 6.95942 3 7.66667 3H18.3333C18.7554 2.99932 19.1734 3.08214 19.5634 3.2437C19.9533 3.40525 20.3074 3.64235 20.6053 3.94134L25.3893 8.72534C25.6891 9.02335 25.9269 9.3778 26.0889 9.76822C26.251 10.1586 26.334 10.5773 26.3333 11V27C26.3333 27.7072 26.0524 28.3855 25.5523 28.8856C25.0522 29.3857 24.3739 29.6667 23.6667 29.6667H7.66667Z" stroke="#CCCCCC" stroke-width="2.66667" stroke-linecap="round" stroke-linejoin="round"/>
<path d="M18.3333 3V9.66667C18.3333 10.0203 18.4737 10.3594 18.7238 10.6095C18.9738 10.8595 19.313 11 19.6666 11H26.3333" stroke="#CCCCCC" stroke-width="2.66667" stroke-linecap="round" stroke-linejoin="round"/>
</svg>
