<svg width="32" height="32" viewBox="0 0 32 32" fill="none" xmlns="http://www.w3.org/2000/svg">
<path d="M11.597 14.828H11.723C12.0963 14.828 12.283 15.01 12.283 15.374V23.802C12.283 24.1567 12.0963 24.334 11.723 24.334H11.597C11.2423 24.334 11.065 24.1567 11.065 23.802V15.374C11.065 15.01 11.2423 14.828 11.597 14.828ZM19.9699 14.24H20.0819C20.4365 14.24 20.6139 14.408 20.6139 14.744V23.83C20.6139 24.166 20.4365 24.334 20.0819 24.334H19.9699C19.6152 24.334 19.4379 24.1753 19.4379 23.858V23.172C19.2325 23.536 18.9385 23.8393 18.5559 24.082C18.1732 24.3153 17.7392 24.432 17.2539 24.432C16.4232 24.432 15.7372 24.1473 15.1959 23.578C14.6545 23.0087 14.3839 22.136 14.3839 20.96C14.3839 19.7747 14.6825 18.8693 15.2799 18.244C15.8772 17.6093 16.6379 17.292 17.5619 17.292C18.2899 17.292 18.9152 17.5067 19.4379 17.936V14.744C19.4379 14.408 19.6152 14.24 19.9699 14.24ZM19.4379 19.084C18.9432 18.5707 18.3505 18.314 17.6599 18.314C16.9692 18.314 16.4419 18.538 16.0779 18.986C15.7139 19.4247 15.5319 20.0873 15.5319 20.974C15.5319 21.8607 15.7185 22.5 16.0919 22.892C16.4652 23.284 16.9599 23.48 17.5759 23.48C18.2012 23.48 18.6679 23.2467 18.9759 22.78C19.2839 22.3133 19.4379 21.7347 19.4379 21.044V19.084Z" fill="#808080"/>
<path d="M7.66667 29.6667C6.95942 29.6667 6.28115 29.3857 5.78105 28.8856C5.28095 28.3855 5 27.7072 5 27V5.66667C5 4.95943 5.28095 4.28115 5.78105 3.78105C6.28115 3.28096 6.95942 3 7.66667 3H18.3333C18.7554 2.99932 19.1734 3.08214 19.5634 3.2437C19.9533 3.40525 20.3074 3.64235 20.6053 3.94134L25.3893 8.72534C25.6891 9.02335 25.9269 9.3778 26.0889 9.76822C26.251 10.1586 26.334 10.5773 26.3333 11V27C26.3333 27.7072 26.0524 28.3855 25.5523 28.8856C25.0522 29.3857 24.3739 29.6667 23.6667 29.6667H7.66667Z" stroke="#CCCCCC" stroke-width="2.66667" stroke-linecap="round" stroke-linejoin="round"/>
<path d="M18.3333 3V9.66667C18.3333 10.0203 18.4737 10.3594 18.7238 10.6095C18.9738 10.8595 19.313 11 19.6666 11H26.3333" stroke="#CCCCCC" stroke-width="2.66667" stroke-linecap="round" stroke-linejoin="round"/>
</svg>
