<svg width="32" height="32" viewBox="0 0 32 32" fill="none" xmlns="http://www.w3.org/2000/svg">
<path d="M19.75 15.084H11.5834C10.939 15.084 10.4167 15.6063 10.4167 16.2507V24.4173C10.4167 25.0616 10.939 25.584 11.5834 25.584H19.75C20.3944 25.584 20.9167 25.0616 20.9167 24.4173V16.2507C20.9167 15.6063 20.3944 15.084 19.75 15.084Z" stroke="#808080" stroke-width="1.33333" stroke-linecap="round" stroke-linejoin="round"/>
<path d="M13.9167 19.7513C14.561 19.7513 15.0833 19.229 15.0833 18.5846C15.0833 17.9403 14.561 17.418 13.9167 17.418C13.2723 17.418 12.75 17.9403 12.75 18.5846C12.75 19.229 13.2723 19.7513 13.9167 19.7513Z" stroke="#808080" stroke-width="1.33333" stroke-linecap="round" stroke-linejoin="round"/>
<path d="M20.9167 22.0832L19.1165 20.283C18.8977 20.0643 18.601 19.9414 18.2917 19.9414C17.9823 19.9414 17.6856 20.0643 17.4669 20.283L12.1667 25.5832" stroke="#808080" stroke-width="1.33333" stroke-linecap="round" stroke-linejoin="round"/>
<path d="M7.66667 29.6667C6.95942 29.6667 6.28115 29.3857 5.78105 28.8856C5.28095 28.3855 5 27.7072 5 27V5.66667C5 4.95943 5.28095 4.28115 5.78105 3.78105C6.28115 3.28096 6.95942 3 7.66667 3H18.3333C18.7554 2.99932 19.1734 3.08214 19.5634 3.2437C19.9533 3.40525 20.3074 3.64235 20.6053 3.94134L25.3893 8.72534C25.6891 9.02335 25.9269 9.3778 26.0889 9.76822C26.251 10.1586 26.334 10.5773 26.3333 11V27C26.3333 27.7072 26.0524 28.3855 25.5523 28.8856C25.0522 29.3857 24.3739 29.6667 23.6667 29.6667H7.66667Z" stroke="#CCCCCC" stroke-width="2.66667" stroke-linecap="round" stroke-linejoin="round"/>
<path d="M18.3334 3V9.66667C18.3334 10.0203 18.4739 10.3594 18.7239 10.6095C18.9739 10.8595 19.3131 11 19.6667 11H26.3334" stroke="#CCCCCC" stroke-width="2.66667" stroke-linecap="round" stroke-linejoin="round"/>
</svg>
