<svg width="32" height="32" viewBox="0 0 32 32" fill="none" xmlns="http://www.w3.org/2000/svg">
<g clip-path="url(#clip0_1457_3866)">
<path d="M15.0833 24C14.059 24.0031 13.0709 23.6211 12.3151 22.9298C11.5592 22.2385 11.0908 21.2884 11.0027 20.2679C10.9146 19.2474 11.2132 18.231 11.8394 17.4204C12.4656 16.6098 13.3736 16.0642 14.3833 15.8917C17.7083 15.25 18.5833 14.9467 19.7499 13.5C20.3333 14.6667 20.9166 15.9383 20.9166 18.1667C20.9166 21.375 18.1283 24 15.0833 24Z" stroke="#808080" stroke-width="1.33333" stroke-linecap="round" stroke-linejoin="round"/>
<path d="M9.83325 24.584C9.83325 22.834 10.9124 21.4573 12.7966 21.084C14.2083 20.804 15.6666 19.9173 16.2499 19.334" stroke="#808080" stroke-width="1.33333" stroke-linecap="round" stroke-linejoin="round"/>
</g>
<path d="M7.66667 29.6667C6.95942 29.6667 6.28115 29.3857 5.78105 28.8856C5.28095 28.3855 5 27.7072 5 27V5.66667C5 4.95943 5.28095 4.28115 5.78105 3.78105C6.28115 3.28096 6.95942 3 7.66667 3H18.3333C18.7554 2.99932 19.1734 3.08214 19.5634 3.2437C19.9533 3.40525 20.3074 3.64235 20.6053 3.94134L25.3893 8.72534C25.6891 9.02335 25.9269 9.3778 26.0889 9.76822C26.251 10.1586 26.334 10.5773 26.3333 11V27C26.3333 27.7072 26.0524 28.3855 25.5523 28.8856C25.0522 29.3857 24.3739 29.6667 23.6667 29.6667H7.66667Z" stroke="#CCCCCC" stroke-width="2.66667" stroke-linecap="round" stroke-linejoin="round"/>
<path d="M18.3333 3V9.66667C18.3333 10.0203 18.4737 10.3594 18.7238 10.6095C18.9738 10.8595 19.313 11 19.6666 11H26.3333" stroke="#CCCCCC" stroke-width="2.66667" stroke-linecap="round" stroke-linejoin="round"/>
<defs>
<clipPath id="clip0_1457_3866">
<rect width="14" height="14" fill="white" transform="translate(8.66663 12.334)"/>
</clipPath>
</defs>
</svg>
