<svg width="32" height="32" viewBox="0 0 32 32" fill="none" xmlns="http://www.w3.org/2000/svg">
<path d="M10.2976 14.828H10.4236C10.7876 14.828 10.9696 15.0053 10.9696 15.36V23.284H15.2816C15.6363 23.284 15.8136 23.4613 15.8136 23.816C15.8136 24.1613 15.6363 24.334 15.2816 24.334H10.2976C9.93359 24.334 9.75159 24.1567 9.75159 23.802V15.36C9.75159 15.0053 9.93359 14.828 10.2976 14.828ZM17.8623 17.432H17.9463C18.301 17.432 18.4783 17.6047 18.4783 17.95V18.706C18.637 18.3513 18.889 18.034 19.2343 17.754C19.589 17.474 19.967 17.334 20.3683 17.334C20.7696 17.334 21.073 17.4133 21.2783 17.572C21.493 17.7307 21.6003 17.9267 21.6003 18.16C21.6003 18.384 21.5023 18.5613 21.3063 18.692C21.017 18.4493 20.709 18.328 20.3823 18.328C19.8036 18.328 19.3463 18.566 19.0103 19.042C18.6743 19.5087 18.5063 20.0967 18.5063 20.806V23.802C18.5063 23.9887 18.4643 24.124 18.3803 24.208C18.2963 24.292 18.161 24.334 17.9743 24.334H17.8623C17.6756 24.334 17.5403 24.292 17.4563 24.208C17.3723 24.124 17.3303 23.9887 17.3303 23.802V17.95C17.3303 17.6047 17.5076 17.432 17.8623 17.432Z" fill="#808080"/>
<path d="M7.66667 29.6667C6.95942 29.6667 6.28115 29.3857 5.78105 28.8856C5.28095 28.3855 5 27.7072 5 27V5.66667C5 4.95943 5.28095 4.28115 5.78105 3.78105C6.28115 3.28096 6.95942 3 7.66667 3H18.3333C18.7554 2.99932 19.1734 3.08214 19.5634 3.2437C19.9533 3.40525 20.3074 3.64235 20.6053 3.94134L25.3893 8.72534C25.6891 9.02335 25.9269 9.3778 26.0889 9.76822C26.251 10.1586 26.334 10.5773 26.3333 11V27C26.3333 27.7072 26.0524 28.3855 25.5523 28.8856C25.0522 29.3857 24.3739 29.6667 23.6667 29.6667H7.66667Z" stroke="#CCCCCC" stroke-width="2.66667" stroke-linecap="round" stroke-linejoin="round"/>
<path d="M18.3334 3V9.66667C18.3334 10.0203 18.4739 10.3594 18.7239 10.6095C18.9739 10.8595 19.3131 11 19.6667 11H26.3334" stroke="#CCCCCC" stroke-width="2.66667" stroke-linecap="round" stroke-linejoin="round"/>
</svg>
