<svg width="32" height="32" viewBox="0 0 32 32" fill="none" xmlns="http://www.w3.org/2000/svg">
<path d="M7.66667 29.6667C6.95942 29.6667 6.28115 29.3857 5.78105 28.8856C5.28095 28.3855 5 27.7072 5 27V5.66667C5 4.95943 5.28095 4.28115 5.78105 3.78105C6.28115 3.28096 6.95942 3 7.66667 3H18.3333C18.7554 2.99932 19.1734 3.08214 19.5634 3.2437C19.9533 3.40525 20.3074 3.64235 20.6053 3.94134L25.3893 8.72534C25.6891 9.02335 25.9269 9.3778 26.0889 9.76822C26.251 10.1586 26.334 10.5773 26.3333 11V27C26.3333 27.7072 26.0524 28.3855 25.5523 28.8856C25.0522 29.3857 24.3739 29.6667 23.6667 29.6667H7.66667Z" stroke="#CCCCCC" stroke-width="2.66667" stroke-linecap="round" stroke-linejoin="round"/>
<path d="M18.3334 3V9.66667C18.3334 10.0203 18.4739 10.3594 18.7239 10.6095C18.9739 10.8595 19.3131 11 19.6667 11H26.3334" stroke="#CCCCCC" stroke-width="2.66667" stroke-linecap="round" stroke-linejoin="round"/>
<path d="M13.3334 14.084H12.75C12.4406 14.084 12.1439 14.2069 11.9251 14.4257C11.7063 14.6445 11.5834 14.9412 11.5834 15.2507V18.1673C11.5834 18.4767 11.4604 18.7735 11.2416 18.9923C11.0229 19.2111 10.7261 19.334 10.4167 19.334C10.7261 19.334 11.0229 19.4569 11.2416 19.6757C11.4604 19.8945 11.5834 20.1912 11.5834 20.5007V23.4173C11.5834 24.059 12.1084 24.584 12.75 24.584H13.3334" stroke="#808080" stroke-width="1.33333" stroke-linecap="round" stroke-linejoin="round"/>
<path d="M18 24.584H18.5833C18.8928 24.584 19.1895 24.4611 19.4083 24.2423C19.6271 24.0235 19.75 23.7267 19.75 23.4173V20.5007C19.75 19.859 20.275 19.334 20.9167 19.334C20.6072 19.334 20.3105 19.2111 20.0917 18.9923C19.8729 18.7735 19.75 18.4767 19.75 18.1673V15.2507C19.75 14.9412 19.6271 14.6445 19.4083 14.4257C19.1895 14.2069 18.8928 14.084 18.5833 14.084H18" stroke="#808080" stroke-width="1.33333" stroke-linecap="round" stroke-linejoin="round"/>
</svg>
