<svg width="32" height="32" viewBox="0 0 32 32" fill="none" xmlns="http://www.w3.org/2000/svg">
<path d="M15.7373 12.8306C15.6583 10.5177 13.8654 11.0655 13.9384 13.2445C14.0478 15.8617 15.0323 16.6164 16.491 18.4545C18.3264 20.7795 19.7121 22.0881 20.8365 22.3925C22.52 22.8429 23.4499 21.4186 21.8089 20.7065C20.1679 19.9944 17.2507 20.2196 15.5489 20.4813C12.7836 20.9256 10.7962 21.7169 9.25859 23.4454C7.90935 24.9427 9.10665 26.0626 10.4559 24.7601C11.6896 23.6037 13.3367 20.4083 14.0113 18.9171C14.9108 16.9329 15.9197 15.1678 15.7313 12.6176L15.7373 12.8306Z" stroke="#808080" stroke-width="1.5"/>
<path d="M7.66667 29.6667C6.95942 29.6667 6.28115 29.3857 5.78105 28.8856C5.28095 28.3855 5 27.7072 5 27V5.66667C5 4.95943 5.28095 4.28115 5.78105 3.78105C6.28115 3.28096 6.95942 3 7.66667 3H18.3333C18.7554 2.99932 19.1734 3.08214 19.5634 3.2437C19.9533 3.40525 20.3074 3.64235 20.6053 3.94134L25.3893 8.72534C25.6891 9.02335 25.9269 9.3778 26.0889 9.76822C26.251 10.1586 26.334 10.5773 26.3333 11V27C26.3333 27.7072 26.0524 28.3855 25.5523 28.8856C25.0522 29.3857 24.3739 29.6667 23.6667 29.6667H7.66667Z" stroke="#CCCCCC" stroke-width="2.66667" stroke-linecap="round" stroke-linejoin="round"/>
<path d="M18.3333 3V9.66667C18.3333 10.0203 18.4737 10.3594 18.7238 10.6095C18.9738 10.8595 19.313 11 19.6666 11H26.3333" stroke="#CCCCCC" stroke-width="2.66667" stroke-linecap="round" stroke-linejoin="round"/>
</svg>
