<svg width="32" height="32" viewBox="0 0 32 32" fill="none" xmlns="http://www.w3.org/2000/svg">
<path d="M10.5173 14.828H13.0653C14.0266 14.828 14.8106 15.0613 15.4173 15.528C16.0239 15.9853 16.3273 16.718 16.3273 17.726C16.3273 18.7247 16.0239 19.462 15.4173 19.938C14.8106 20.4047 14.0266 20.638 13.0653 20.638H11.1893V23.802C11.1893 24.1567 11.0073 24.334 10.6433 24.334H10.5173C10.1533 24.334 9.97125 24.1567 9.97125 23.802V15.374C9.97125 15.01 10.1533 14.828 10.5173 14.828ZM11.1893 15.864V19.588H13.0793C14.4513 19.588 15.1373 18.9673 15.1373 17.726C15.1373 16.4847 14.4513 15.864 13.0793 15.864H11.1893ZM18.6425 17.432H18.7265C19.0812 17.432 19.2585 17.6047 19.2585 17.95V18.706C19.4172 18.3513 19.6692 18.034 20.0145 17.754C20.3692 17.474 20.7472 17.334 21.1485 17.334C21.5498 17.334 21.8532 17.4133 22.0585 17.572C22.2732 17.7307 22.3805 17.9267 22.3805 18.16C22.3805 18.384 22.2825 18.5613 22.0865 18.692C21.7972 18.4493 21.4892 18.328 21.1625 18.328C20.5838 18.328 20.1265 18.566 19.7905 19.042C19.4545 19.5087 19.2865 20.0967 19.2865 20.806V23.802C19.2865 23.9887 19.2445 24.124 19.1605 24.208C19.0765 24.292 18.9412 24.334 18.7545 24.334H18.6425C18.4558 24.334 18.3205 24.292 18.2365 24.208C18.1525 24.124 18.1105 23.9887 18.1105 23.802V17.95C18.1105 17.6047 18.2878 17.432 18.6425 17.432Z" fill="#808080"/>
<path d="M7.66667 29.6667C6.95942 29.6667 6.28115 29.3857 5.78105 28.8856C5.28095 28.3855 5 27.7072 5 27V5.66667C5 4.95943 5.28095 4.28115 5.78105 3.78105C6.28115 3.28096 6.95942 3 7.66667 3H18.3333C18.7554 2.99932 19.1734 3.08214 19.5634 3.2437C19.9533 3.40525 20.3074 3.64235 20.6053 3.94134L25.3893 8.72534C25.6891 9.02335 25.9269 9.3778 26.0889 9.76822C26.251 10.1586 26.334 10.5773 26.3333 11V27C26.3333 27.7072 26.0524 28.3855 25.5523 28.8856C25.0522 29.3857 24.3739 29.6667 23.6667 29.6667H7.66667Z" stroke="#CCCCCC" stroke-width="2.66667" stroke-linecap="round" stroke-linejoin="round"/>
<path d="M18.3333 3V9.66667C18.3333 10.0203 18.4737 10.3594 18.7238 10.6095C18.9738 10.8595 19.313 11 19.6666 11H26.3333" stroke="#CCCCCC" stroke-width="2.66667" stroke-linecap="round" stroke-linejoin="round"/>
</svg>
