<svg width="32" height="32" viewBox="0 0 32 32" fill="none" xmlns="http://www.w3.org/2000/svg">
<path d="M9.62083 14.828H12.1688C13.1302 14.828 13.9142 15.0613 14.5208 15.528C15.1275 15.9853 15.4308 16.718 15.4308 17.726C15.4308 18.7247 15.1275 19.462 14.5208 19.938C13.9142 20.4047 13.1302 20.638 12.1688 20.638H10.2928V23.802C10.2928 24.1567 10.1108 24.334 9.74683 24.334H9.62083C9.25683 24.334 9.07483 24.1567 9.07483 23.802V15.374C9.07483 15.01 9.25683 14.828 9.62083 14.828ZM10.2928 15.864V19.588H12.1828C13.5548 19.588 14.2408 18.9673 14.2408 17.726C14.2408 16.4847 13.5548 15.864 12.1828 15.864H10.2928ZM16.9341 19.35C16.9341 18.7153 17.2047 18.216 17.7461 17.852C18.2967 17.4787 18.9081 17.292 19.5801 17.292C20.2521 17.292 20.7701 17.39 21.1341 17.586C21.5074 17.7727 21.6941 17.9967 21.6941 18.258C21.6941 18.5193 21.5121 18.7107 21.1481 18.832C21.0827 18.6827 20.9007 18.5427 20.6021 18.412C20.3127 18.2813 19.9534 18.216 19.5241 18.216C19.0947 18.216 18.7401 18.3 18.4601 18.468C18.1894 18.6267 18.0541 18.8553 18.0541 19.154C18.0541 19.4433 18.1567 19.6673 18.3621 19.826C18.5674 19.9847 19.0481 20.1527 19.8041 20.33C20.5694 20.498 21.1527 20.7453 21.5541 21.072C21.9554 21.3987 22.1561 21.856 22.1561 22.444C22.1561 23.032 21.8854 23.5127 21.3441 23.886C20.8027 24.25 20.1354 24.432 19.3421 24.432C18.5581 24.432 17.9281 24.334 17.4521 24.138C16.9854 23.9327 16.7521 23.6667 16.7521 23.34C16.7521 23.0133 16.9061 22.7753 17.2141 22.626C17.3447 22.878 17.5967 23.0927 17.9701 23.27C18.3434 23.4473 18.8101 23.536 19.3701 23.536C19.9301 23.536 20.3547 23.4333 20.6441 23.228C20.9427 23.0227 21.0921 22.7707 21.0921 22.472C21.0921 22.164 20.9567 21.926 20.6861 21.758C20.4247 21.5807 19.9067 21.408 19.1321 21.24C18.3667 21.072 17.8067 20.834 17.4521 20.526C17.1067 20.2087 16.9341 19.8167 16.9341 19.35Z" fill="#808080"/>
<path d="M7.66667 29.6667C6.95942 29.6667 6.28115 29.3857 5.78105 28.8856C5.28095 28.3855 5 27.7072 5 27V5.66667C5 4.95943 5.28095 4.28115 5.78105 3.78105C6.28115 3.28096 6.95942 3 7.66667 3H18.3333C18.7554 2.99932 19.1734 3.08214 19.5634 3.2437C19.9533 3.40525 20.3074 3.64235 20.6053 3.94134L25.3893 8.72534C25.6891 9.02335 25.9269 9.3778 26.0889 9.76822C26.251 10.1586 26.334 10.5773 26.3333 11V27C26.3333 27.7072 26.0524 28.3855 25.5523 28.8856C25.0522 29.3857 24.3739 29.6667 23.6667 29.6667H7.66667Z" stroke="#CCCCCC" stroke-width="2.66667" stroke-linecap="round" stroke-linejoin="round"/>
<path d="M18.3334 3V9.66667C18.3334 10.0203 18.4739 10.3594 18.7239 10.6095C18.9739 10.8595 19.3131 11 19.6667 11H26.3334" stroke="#CCCCCC" stroke-width="2.66667" stroke-linecap="round" stroke-linejoin="round"/>
</svg>
