<svg width="32" height="32" viewBox="0 0 32 32" fill="none" xmlns="http://www.w3.org/2000/svg">
<path d="M7.66667 29.6667C6.95942 29.6667 6.28115 29.3857 5.78105 28.8856C5.28095 28.3855 5 27.7072 5 27V5.66667C5 4.95943 5.28095 4.28115 5.78105 3.78105C6.28115 3.28096 6.95942 3 7.66667 3H18.3333C18.7554 2.99932 19.1734 3.08214 19.5634 3.2437C19.9533 3.40525 20.3074 3.64235 20.6053 3.94134L25.3893 8.72534C25.6891 9.02335 25.9269 9.3778 26.0889 9.76822C26.251 10.1586 26.334 10.5773 26.3333 11V27C26.3333 27.7072 26.0524 28.3855 25.5523 28.8856C25.0522 29.3857 24.3739 29.6667 23.6667 29.6667H7.66667Z" stroke="#CCCCCC" stroke-width="2.66667" stroke-linecap="round" stroke-linejoin="round"/>
<path d="M18.3333 3V9.66667C18.3333 10.0203 18.4737 10.3594 18.7238 10.6095C18.9738 10.8595 19.313 11 19.6666 11H26.3333" stroke="#CCCCCC" stroke-width="2.66667" stroke-linecap="round" stroke-linejoin="round"/>
<g clip-path="url(#clip0_1457_3948)">
<path d="M15.6666 25.1667C14.1195 25.1667 12.6358 24.5521 11.5418 23.4581C10.4478 22.3642 9.83325 20.8804 9.83325 19.3333C9.83325 17.7862 10.4478 16.3025 11.5418 15.2085C12.6358 14.1146 14.1195 13.5 15.6666 13.5C17.2137 13.5 18.6974 14.0531 19.7914 15.0377C20.8853 16.0223 21.4999 17.3576 21.4999 18.75C21.4999 19.5235 21.1926 20.2654 20.6456 20.8124C20.0987 21.3594 19.3568 21.6667 18.5833 21.6667H17.2708C17.0812 21.6667 16.8953 21.7195 16.7341 21.8191C16.5728 21.9188 16.4425 22.0614 16.3577 22.231C16.2729 22.4005 16.237 22.5904 16.254 22.7792C16.2711 22.968 16.3403 23.1483 16.4541 23.3L16.6291 23.5333C16.7428 23.685 16.8121 23.8653 16.8291 24.0542C16.8462 24.243 16.8103 24.4328 16.7255 24.6024C16.6407 24.7719 16.5104 24.9145 16.3491 25.0142C16.1878 25.1139 16.002 25.1667 15.8124 25.1667H15.6666Z" stroke="#808080" stroke-width="1.33333" stroke-linecap="round" stroke-linejoin="round"/>
<path d="M16.5417 16.4173C16.7027 16.4173 16.8333 16.2867 16.8333 16.1257C16.8333 15.9646 16.7027 15.834 16.5417 15.834C16.3806 15.834 16.25 15.9646 16.25 16.1257C16.25 16.2867 16.3806 16.4173 16.5417 16.4173Z" fill="#808080" stroke="#808080" stroke-width="1.33333" stroke-linecap="round" stroke-linejoin="round"/>
<path d="M18.8749 18.7513C19.036 18.7513 19.1666 18.6207 19.1666 18.4596C19.1666 18.2986 19.036 18.168 18.8749 18.168C18.7138 18.168 18.5833 18.2986 18.5833 18.4596C18.5833 18.6207 18.7138 18.7513 18.8749 18.7513Z" fill="#808080" stroke="#808080" stroke-width="1.33333" stroke-linecap="round" stroke-linejoin="round"/>
<path d="M12.4583 19.9173C12.6194 19.9173 12.75 19.7867 12.75 19.6257C12.75 19.4646 12.6194 19.334 12.4583 19.334C12.2972 19.334 12.1666 19.4646 12.1666 19.6257C12.1666 19.7867 12.2972 19.9173 12.4583 19.9173Z" fill="#808080" stroke="#808080" stroke-width="1.33333" stroke-linecap="round" stroke-linejoin="round"/>
<path d="M13.6249 17.0013C13.786 17.0013 13.9166 16.8707 13.9166 16.7096C13.9166 16.5486 13.786 16.418 13.6249 16.418C13.4638 16.418 13.3333 16.5486 13.3333 16.7096C13.3333 16.8707 13.4638 17.0013 13.6249 17.0013Z" fill="#808080" stroke="#808080" stroke-width="1.33333" stroke-linecap="round" stroke-linejoin="round"/>
</g>
<defs>
<clipPath id="clip0_1457_3948">
<rect width="14" height="14" fill="white" transform="translate(8.66663 12.334)"/>
</clipPath>
</defs>
</svg>
