<svg width="32" height="32" viewBox="0 0 32 32" fill="none" xmlns="http://www.w3.org/2000/svg">
<path d="M14.8662 25.134V15.534C14.8662 15.0922 15.2248 14.7336 15.6666 14.7336C16.1085 14.7336 16.467 15.0922 16.467 15.534V25.134C16.467 25.5758 16.1085 25.9344 15.6666 25.9344C15.2248 25.9344 14.8662 25.5758 14.8662 25.134Z" fill="#808080"/>
<path d="M10.8666 19.5336H20.4666C20.9085 19.5336 21.267 19.8922 21.267 20.334C21.267 20.7758 20.9085 21.1344 20.4666 21.1344H10.8666C10.4248 21.1344 10.0662 20.7758 10.0662 20.334C10.0662 19.8922 10.4248 19.5336 10.8666 19.5336Z" fill="#808080"/>
<path d="M11.5598 16.3762C11.8722 16.0638 12.3782 16.0636 12.6906 16.3759L19.4794 23.1643C19.7914 23.4767 19.7908 23.9824 19.4786 24.2947C19.1662 24.6072 18.6602 24.6075 18.3478 24.2951L11.5601 17.507C11.2477 17.1946 11.2475 16.6886 11.5598 16.3762Z" fill="#808080"/>
<path d="M19.4789 16.3762C19.1665 16.0638 18.6605 16.0636 18.3481 16.3759L11.5593 23.1643C11.2472 23.4767 11.2478 23.9824 11.5601 24.2947C11.8725 24.6072 12.3785 24.6075 12.6909 24.2951L19.4786 17.507C19.7909 17.1946 19.7911 16.6886 19.4789 16.3762Z" fill="#808080"/>
<path d="M16.8666 15.534C16.8666 16.1967 16.3294 16.734 15.6666 16.734C15.0039 16.734 14.4666 16.1967 14.4666 15.534C14.4666 14.8712 15.0039 14.334 15.6666 14.334C16.3294 14.334 16.8666 14.8712 16.8666 15.534Z" fill="#808080"/>
<path d="M20.4666 21.534C19.8039 21.534 19.2666 20.9967 19.2666 20.334C19.2666 19.6712 19.8039 19.134 20.4666 19.134C21.1294 19.134 21.6666 19.6712 21.6666 20.334C21.6666 20.9967 21.1294 21.534 20.4666 21.534Z" fill="#808080"/>
<path d="M16.8666 25.134C16.8666 25.7967 16.3294 26.334 15.6666 26.334C15.0039 26.334 14.4666 25.7967 14.4666 25.134C14.4666 24.4712 15.0039 23.934 15.6666 23.934C16.3294 23.934 16.8666 24.4712 16.8666 25.134Z" fill="#808080"/>
<path d="M10.8666 21.534C10.2039 21.534 9.66663 20.9967 9.66663 20.334C9.66663 19.6712 10.2039 19.134 10.8666 19.134C11.5294 19.134 12.0666 19.6712 12.0666 20.334C12.0666 20.9967 11.5294 21.534 10.8666 21.534Z" fill="#808080"/>
<path d="M18.2122 24.569C17.7436 24.1003 17.7436 23.3405 18.2122 22.8719C18.6808 22.4033 19.4406 22.4033 19.9093 22.8719C20.3779 23.3405 20.3779 24.1003 19.9093 24.569C19.4406 25.0376 18.6808 25.0376 18.2122 24.569Z" fill="#808080"/>
<path d="M11.424 17.7807C10.9553 17.3121 10.9553 16.5523 11.424 16.0837C11.8926 15.6151 12.6524 15.6151 13.121 16.0837C13.5897 16.5523 13.5897 17.3121 13.121 17.7807C12.6524 18.2494 11.8926 18.2494 11.424 17.7807Z" fill="#808080"/>
<path d="M13.121 24.5693C13.5896 24.1006 13.5896 23.3408 13.121 22.8722C12.6524 22.4036 11.8926 22.4036 11.4239 22.8722C10.9553 23.3408 10.9553 24.1006 11.4239 24.5693C11.8926 25.0379 12.6524 25.0379 13.121 24.5693Z" fill="#808080"/>
<path d="M19.9092 17.781C20.3778 17.3124 20.3778 16.5526 19.9092 16.084C19.4406 15.6154 18.6808 15.6154 18.2122 16.084C17.7435 16.5526 17.7435 17.3124 18.2122 17.781C18.6808 18.2497 19.4406 18.2497 19.9092 17.781Z" fill="#808080"/>
<path d="M7.66667 29.6667C6.95942 29.6667 6.28115 29.3857 5.78105 28.8856C5.28095 28.3855 5 27.7072 5 27V5.66667C5 4.95943 5.28095 4.28115 5.78105 3.78105C6.28115 3.28096 6.95942 3 7.66667 3H18.3333C18.7554 2.99932 19.1734 3.08214 19.5634 3.2437C19.9533 3.40525 20.3074 3.64235 20.6053 3.94134L25.3893 8.72534C25.6891 9.02335 25.9269 9.3778 26.0889 9.76822C26.251 10.1586 26.334 10.5773 26.3333 11V27C26.3333 27.7072 26.0524 28.3855 25.5523 28.8856C25.0522 29.3857 24.3739 29.6667 23.6667 29.6667H7.66667Z" stroke="#CCCCCC" stroke-width="2.66667" stroke-linecap="round" stroke-linejoin="round"/>
<path d="M18.3333 3V9.66667C18.3333 10.0203 18.4737 10.3594 18.7238 10.6095C18.9738 10.8595 19.313 11 19.6666 11H26.3333" stroke="#CCCCCC" stroke-width="2.66667" stroke-linecap="round" stroke-linejoin="round"/>
</svg>
