<svg width="32" height="32" viewBox="0 0 32 32" fill="none" xmlns="http://www.w3.org/2000/svg">
<path d="M11.5833 16.251C11.5832 16.0457 11.6373 15.8441 11.7401 15.6664C11.8429 15.4887 11.9908 15.3413 12.1688 15.239C12.3468 15.1368 12.5486 15.0833 12.7539 15.084C12.9592 15.0847 13.1606 15.1395 13.3379 15.243L20.3362 19.3252C20.5128 19.4276 20.6594 19.5747 20.7614 19.7516C20.8634 19.9285 20.9171 20.1291 20.9173 20.3332C20.9175 20.5374 20.8641 20.7381 20.7624 20.9152C20.6607 21.0923 20.5144 21.2395 20.3379 21.3423L13.3379 25.4257C13.1606 25.5291 12.9592 25.584 12.7539 25.5847C12.5486 25.5854 12.3468 25.5319 12.1688 25.4296C11.9908 25.3274 11.8429 25.18 11.7401 25.0023C11.6373 24.8246 11.5832 24.6229 11.5833 24.4177V16.251Z" stroke="#808080" stroke-width="1.33" stroke-linecap="round" stroke-linejoin="round"/>
<path d="M7.66667 29.6667C6.95942 29.6667 6.28115 29.3857 5.78105 28.8856C5.28095 28.3855 5 27.7072 5 27V5.66667C5 4.95943 5.28095 4.28115 5.78105 3.78105C6.28115 3.28096 6.95942 3 7.66667 3H18.3333C18.7554 2.99932 19.1734 3.08214 19.5634 3.2437C19.9533 3.40525 20.3074 3.64235 20.6053 3.94134L25.3893 8.72534C25.6891 9.02335 25.9269 9.3778 26.0889 9.76822C26.251 10.1586 26.334 10.5773 26.3333 11V27C26.3333 27.7072 26.0524 28.3855 25.5523 28.8856C25.0522 29.3857 24.3739 29.6667 23.6667 29.6667H7.66667Z" stroke="#CCCCCC" stroke-width="2.66667" stroke-linecap="round" stroke-linejoin="round"/>
<path d="M18.3333 3V9.66667C18.3333 10.0203 18.4737 10.3594 18.7238 10.6095C18.9738 10.8595 19.313 11 19.6666 11H26.3333" stroke="#CCCCCC" stroke-width="2.66667" stroke-linecap="round" stroke-linejoin="round"/>
</svg>
