<svg width="32" height="32" viewBox="0 0 32 32" fill="none" xmlns="http://www.w3.org/2000/svg">
<g clip-path="url(#clip0_1457_3730)">
<path d="M15.6667 26.1667C18.8884 26.1667 21.5 23.555 21.5 20.3333C21.5 17.1117 18.8884 14.5 15.6667 14.5C12.445 14.5 9.83337 17.1117 9.83337 20.3333C9.83337 23.555 12.445 26.1667 15.6667 26.1667Z" stroke="#808080" stroke-width="1.33" stroke-linecap="round" stroke-linejoin="round"/>
<path d="M13.3334 20.3333C13.3334 18.1614 14.1688 16.0728 15.6667 14.5C17.1646 16.0728 18 18.1614 18 20.3333C18 22.5052 17.1646 24.5939 15.6667 26.1667C14.1688 24.5939 13.3334 22.5052 13.3334 20.3333Z" stroke="#808080" stroke-width="1.33" stroke-linecap="round" stroke-linejoin="round"/>
<path d="M9.83337 20.334H21.5" stroke="#808080" stroke-width="1.33" stroke-linecap="round" stroke-linejoin="round"/>
</g>
<path d="M7.66667 29.6667C6.95942 29.6667 6.28115 29.3857 5.78105 28.8856C5.28095 28.3855 5 27.7072 5 27V5.66667C5 4.95943 5.28095 4.28115 5.78105 3.78105C6.28115 3.28096 6.95942 3 7.66667 3H18.3333C18.7554 2.99932 19.1734 3.08214 19.5634 3.2437C19.9533 3.40525 20.3074 3.64235 20.6053 3.94134L25.3893 8.72534C25.6891 9.02335 25.9269 9.3778 26.0889 9.76822C26.251 10.1586 26.334 10.5773 26.3333 11V27C26.3333 27.7072 26.0524 28.3855 25.5523 28.8856C25.0522 29.3857 24.3739 29.6667 23.6667 29.6667H7.66667Z" stroke="#CCCCCC" stroke-width="2.66667" stroke-linecap="round" stroke-linejoin="round"/>
<path d="M18.3334 3V9.66667C18.3334 10.0203 18.4739 10.3594 18.7239 10.6095C18.9739 10.8595 19.3131 11 19.6667 11H26.3334" stroke="#CCCCCC" stroke-width="2.66667" stroke-linecap="round" stroke-linejoin="round"/>
<defs>
<clipPath id="clip0_1457_3730">
<rect width="14" height="14" fill="white" transform="translate(8.66669 13.334)"/>
</clipPath>
</defs>
</svg>
